<svg xmlns="http://www.w3.org/2000/svg" viewBox="0 0 800 400">
  <defs>
    <linearGradient id="bg" x1="0%" y1="0%" x2="100%" y2="100%">
      <stop offset="0%" style="stop-color:#0a0a1a"/>
      <stop offset="100%" style="stop-color:#1a1a3e"/>
    </linearGradient>
    <linearGradient id="acc" x1="0%" y1="0%" x2="100%" y2="0%">
      <stop offset="0%" style="stop-color:#6366f1"/>
      <stop offset="100%" style="stop-color:#8b5cf6"/>
    </linearGradient>
  </defs>
  <rect width="800" height="400" fill="url(#bg)"/>
  <!-- Grid pattern -->
  <g opacity="0.05" stroke="#8b5cf6">
    <line x1="0" y1="80" x2="800" y2="80" stroke-width="1"/>
    <line x1="0" y1="160" x2="800" y2="160" stroke-width="1"/>
    <line x1="0" y1="240" x2="800" y2="240" stroke-width="1"/>
    <line x1="0" y1="320" x2="800" y2="320" stroke-width="1"/>
    <line x1="160" y1="0" x2="160" y2="400" stroke-width="1"/>
    <line x1="320" y1="0" x2="320" y2="400" stroke-width="1"/>
    <line x1="480" y1="0" x2="480" y2="400" stroke-width="1"/>
    <line x1="640" y1="0" x2="640" y2="400" stroke-width="1"/>
  </g>
  <!-- Neural network nodes -->
  <g opacity="0.15">
    <circle cx="150" cy="100" r="20" fill="#6366f1"/>
    <circle cx="150" cy="200" r="20" fill="#6366f1"/>
    <circle cx="150" cy="300" r="20" fill="#6366f1"/>
    <circle cx="400" cy="120" r="20" fill="#8b5cf6"/>
    <circle cx="400" cy="200" r="20" fill="#8b5cf6"/>
    <circle cx="400" cy="280" r="20" fill="#8b5cf6"/>
    <circle cx="650" cy="160" r="20" fill="#a78bfa"/>
    <circle cx="650" cy="240" r="20" fill="#a78bfa"/>
    <line x1="170" y1="100" x2="380" y2="120" stroke="#6366f1" stroke-width="1"/>
    <line x1="170" y1="100" x2="380" y2="200" stroke="#6366f1" stroke-width="1"/>
    <line x1="170" y1="200" x2="380" y2="120" stroke="#6366f1" stroke-width="1"/>
    <line x1="170" y1="200" x2="380" y2="200" stroke="#6366f1" stroke-width="1"/>
    <line x1="170" y1="200" x2="380" y2="280" stroke="#6366f1" stroke-width="1"/>
    <line x1="170" y1="300" x2="380" y2="200" stroke="#6366f1" stroke-width="1"/>
    <line x1="170" y1="300" x2="380" y2="280" stroke="#6366f1" stroke-width="1"/>
    <line x1="420" y1="120" x2="630" y2="160" stroke="#8b5cf6" stroke-width="1"/>
    <line x1="420" y1="120" x2="630" y2="240" stroke="#8b5cf6" stroke-width="1"/>
    <line x1="420" y1="200" x2="630" y2="160" stroke="#8b5cf6" stroke-width="1"/>
    <line x1="420" y1="200" x2="630" y2="240" stroke="#8b5cf6" stroke-width="1"/>
    <line x1="420" y1="280" x2="630" y2="160" stroke="#8b5cf6" stroke-width="1"/>
    <line x1="420" y1="280" x2="630" y2="240" stroke="#8b5cf6" stroke-width="1"/>
  </g>
  <!-- Brain icon -->
  <g transform="translate(340, 130)" opacity="0.9">
    <path d="M60 0C40 0 24 16 24 36c-16 4-24 18-24 34 0 18 12 32 28 36 4 16 18 28 36 28 8 0 16-2 22-7 6 5 14 7 22 7 18 0 32-12 36-28 16-4 28-18 28-36 0-16-8-30-24-34C148 16 132 0 112 0c-12 0-22 4-30 12C74 4 68 0 60 0z" fill="url(#acc)" opacity="0.3"/>
    <text x="56" y="80" font-family="system-ui" font-size="48" fill="white" font-weight="700" text-anchor="middle">AI</text>
  </g>
  <!-- Floating particles -->
  <circle cx="100" cy="50" r="3" fill="#6366f1" opacity="0.4"/>
  <circle cx="700" cy="80" r="2" fill="#8b5cf6" opacity="0.3"/>
  <circle cx="600" cy="350" r="4" fill="#a78bfa" opacity="0.2"/>
  <circle cx="200" cy="350" r="3" fill="#6366f1" opacity="0.3"/>
</svg>