<svg xmlns="http://www.w3.org/2000/svg" viewBox="0 0 800 400">
  <defs>
    <linearGradient id="bg" x1="0%" y1="0%" x2="100%" y2="100%">
      <stop offset="0%" style="stop-color:#0a0a1a"/>
      <stop offset="100%" style="stop-color:#1a2a1a"/>
    </linearGradient>
    <linearGradient id="acc" x1="0%" y1="0%" x2="100%" y2="0%">
      <stop offset="0%" style="stop-color:#10b981"/>
      <stop offset="100%" style="stop-color:#34d399"/>
    </linearGradient>
  </defs>
  <rect width="800" height="400" fill="url(#bg)"/>
  <g opacity="0.05" stroke="#10b981">
    <line x1="0" y1="80" x2="800" y2="80"/><line x1="0" y1="160" x2="800" y2="160"/>
    <line x1="0" y1="240" x2="800" y2="240"/><line x1="0" y1="320" x2="800" y2="320"/>
    <line x1="160" y1="0" x2="160" y2="400"/><line x1="320" y1="0" x2="320" y2="400"/>
    <line x1="480" y1="0" x2="480" y2="400"/><line x1="640" y1="0" x2="640" y2="400"/>
  </g>
  <!-- Matrix grid -->
  <g transform="translate(200, 80)" opacity="0.2">
    <rect x="0" y="0" width="60" height="40" rx="4" fill="#10b981"/>
    <rect x="70" y="0" width="60" height="40" rx="4" fill="#10b981" opacity="0.7"/>
    <rect x="140" y="0" width="60" height="40" rx="4" fill="#10b981" opacity="0.4"/>
    <rect x="210" y="0" width="60" height="40" rx="4" fill="#10b981" opacity="0.8"/>
    <rect x="280" y="0" width="60" height="40" rx="4" fill="#10b981" opacity="0.3"/>
    <rect x="0" y="50" width="60" height="40" rx="4" fill="#10b981" opacity="0.5"/>
    <rect x="70" y="50" width="60" height="40" rx="4" fill="#34d399"/>
    <rect x="140" y="50" width="60" height="40" rx="4" fill="#10b981" opacity="0.6"/>
    <rect x="210" y="50" width="60" height="40" rx="4" fill="#10b981" opacity="0.2"/>
    <rect x="280" y="50" width="60" height="40" rx="4" fill="#10b981" opacity="0.9"/>
    <rect x="0" y="100" width="60" height="40" rx="4" fill="#10b981" opacity="0.8"/>
    <rect x="70" y="100" width="60" height="40" rx="4" fill="#10b981" opacity="0.3"/>
    <rect x="140" y="100" width="60" height="40" rx="4" fill="#34d399" opacity="0.7"/>
    <rect x="210" y="100" width="60" height="40" rx="4" fill="#10b981" opacity="0.5"/>
    <rect x="280" y="100" width="60" height="40" rx="4" fill="#10b981" opacity="0.4"/>
    <rect x="0" y="150" width="60" height="40" rx="4" fill="#10b981" opacity="0.4"/>
    <rect x="70" y="150" width="60" height="40" rx="4" fill="#10b981" opacity="0.6"/>
    <rect x="140" y="150" width="60" height="40" rx="4" fill="#10b981" opacity="0.3"/>
    <rect x="210" y="150" width="60" height="40" rx="4" fill="#34d399" opacity="0.8"/>
    <rect x="280" y="150" width="60" height="40" rx="4" fill="#10b981" opacity="0.5"/>
  </g>
  <!-- User-item connections -->
  <g opacity="0.15" stroke="#34d399" stroke-width="2">
    <line x1="100" y1="150" x2="250" y2="100"/>
    <line x1="100" y1="150" x2="350" y2="180"/>
    <line x1="100" y1="250" x2="300" y2="210"/>
    <line x1="700" y1="150" x2="550" y2="100"/>
    <line x1="700" y1="250" x2="500" y2="280"/>
  </g>
  <!-- Center icon -->
  <g transform="translate(350, 160)">
    <rect x="0" y="0" width="100" height="80" rx="12" fill="url(#acc)" opacity="0.25"/>
    <text x="50" y="52" font-family="system-ui" font-size="36" fill="white" font-weight="700" text-anchor="middle">⟨R⟩</text>
  </g>
  <circle cx="80" cy="60" r="3" fill="#10b981" opacity="0.4"/>
  <circle cx="720" cy="340" r="4" fill="#34d399" opacity="0.3"/>
</svg>